<?xml version='1.0' encoding='utf-8'?>

<svg xmlns="http://www.w3.org/2000/svg" id="Ebene_1" data-name="Ebene 1" viewBox="0 0 800 800">
    <defs>
        <clipPath id="clip-path">
            <circle cx="400" cy="400" r="400" style="fill:none"/>
        </clipPath>
        
        <linearGradient id="Unbenannter_Verlauf_66" x1="404.7029" y1="387.7029" x2="139.7002" y2="652.7057" gradientUnits="userSpaceOnUse"><stop offset="0"/>
            <stop offset="1" stop-opacity="0"/>
        </linearGradient>
    </defs>

    <title>papierflieger_blue</title>

    <circle cx="400" cy="400" r="400" style="fill:#1c8adb"/>
    
    <g
     id="g859"
     transform="matrix(1.8590585,0,0,1.6612896,90.572954,259.92271)">
    <path
       d="M 341.56,50.928 180.49,4.248 c -14.986,-4.496 -57.262,-6.3154 -81.565,5.1207 -28.16,13.251 -51.938,33.65 -66.569,54.864 -14.631,21.214 -30.358,50.475 -31.456,59.254 -1.098,8.779 4.9609,23.339 17.922,27.432 13.899,4.3891 45.33,5.6901 96.196,-1.8288 32.308,-4.7758 226.41,-76.81 226.41,-76.81 l 0.13717,-21.351 z"
       fill="#ffffff"
       fill-rule="evenodd"
       stroke="#000000"
       stroke-width="1.5362"
       id="path2" />
    <path
       d="m 180.77,41.517 c -20.087,0.2534 -50.544,19.281 -73.85,40.597 -1.0625,0.97179 -0.74615,1.8768 0.94412,1.5362 8.8927,-1.7917 33.51,-5.5786 44.278,-6.2568 16.004,-1.0081 50.067,-3.4358 84.939,-5.9848 v -24.435 c -26.013,-2.8083 -48.348,-5.1218 -54.407,-5.4247 -0.62579,-0.03143 -1.2563,-0.04018 -1.9042,-0.032 z m 63.352,3.3284 c -1.8237,0 -3.2804,5.0932 -3.2804,11.426 v 5.6808 c 0,6.3323 1.4567,11.426 3.2804,11.426 1.8237,0 3.2964,-5.0932 3.2964,-11.426 v -5.6808 c 0,-6.3323 -1.4727,-11.426 -3.2964,-11.426 z m 6.1288,3.5685 v 22.019 c 27.001,-1.9822 50.092,-3.6865 67.385,-4.9766 V 55.903 c -17.888,-2.0135 -41.531,-4.6657 -67.385,-7.489 z m 69.241,7.697 v 9.2012 l 7.1529,-0.52807 v -7.857 c -2.9324,-0.33052 -3.6964,-0.42669 -7.1529,-0.81611 z m 10.641,1.2002 v 7.201 c 4.9973,-0.37565 11.105,-0.83211 11.105,-0.83211 v -5.1207 l -11.105,-1.2482 z"
       fill-rule="evenodd"
       id="path4" />
    <path
       d="m 340.7,66.003 c -1.3919,0.02837 -2.4889,0.15507 -2.8859,0.17346 -1.4289,0.06617 -2.7427,0.74179 -3.0565,1.0556 -0.6348,0.6348 -0.14493,0.87021 2.5767,0.77628 1.0411,-0.03593 2.6573,-0.42961 3.3699,-0.46917 -0.017,-0.79906 -0.007,-0.7358 -0.004,-1.5362 z m -7.8787,1.021 c -4.4937,0.16484 -8.9195,0.6269 -13.33,1.1682 v 2.5923 c 3.7435,-0.67526 7.8372,-1.4078 11.265,-1.8882 2.0675,-0.46454 3.1839,-1.9258 2.0643,-1.8722 z m -15.186,1.4082 c -3.7122,0.47041 -7.4245,0.97474 -11.153,1.3762 -1.9715,0.25772 -8.2924,1.0622 -14.05,1.7922 -10.276,1.303 -11.608,1.6961 -11.025,3.2804 0.13786,0.37508 0.24003,1.0496 0.24003,1.4882 0,1.0021 1.0915,0.87529 15.874,-1.8882 6.0552,-1.132 8.6298,-1.5339 12.498,-2.0643 1.6504,-0.22631 4.483,-0.74468 7.617,-1.3122 v -2.6724 z m -40.725,5.4727 c -2.8586,0.0033 -14.869,1.2381 -34.693,3.5845 -2.3939,0.28335 -14.261,1.6757 -26.371,3.0884 -12.11,1.4127 -25.591,3.0301 -29.956,3.6005 -4.365,0.5704 -13.583,1.7365 -20.483,2.5923 -23.367,2.8984 -72.263,9.4166 -74.522,9.9373 -0.89672,0.20675 -8.3682,8.6952 -8.8492,10.049 -0.09388,0.26434 0.59302,0.48006 1.5362,0.48006 1.785,0 41.923,-4.6911 59.304,-6.9289 5.4919,-0.70709 12.405,-1.5173 15.362,-1.8082 8.0373,-0.79072 11.813,-1.327 19.715,-2.7684 3.9429,-0.7193 11.201,-1.9916 16.13,-2.8324 27.724,-4.7298 80.806,-14.147 82.523,-14.642 0.84809,-0.24442 1.541,-3.3488 0.96013,-4.2886 -0.0312,-0.05042 -0.24772,-0.06449 -0.65609,-0.06401 z"
       fill="#ff0000"
       id="path6" />
    <path
       d="M 139.52,20.89 C 135.3314,24.2993 96.177,59.844 88.313,63.501 80.449,67.158 57.589,72.6451 45.885,71.9135 34.181,71.1819 30.706,70.0089 29.609,68.363 48.297,39.819 75.447,21.151 97.458,10.077 c 15.545,-2.9261 35.876,-0.57197 39.319,1.851 4.9378,3.4748 5.6002,6.6358 2.7432,8.9612 z"
       fill-rule="evenodd"
       id="path8" />
    <path
       d="M 62.256,107.15 78.679,85.942 c -9.7329,0.42401 -20.131,1.9897 -23.148,4.914 -3.0845,2.9896 -10.087,13.19 -10.087,13.19 l 16.811,3.1036 z"
       fill="#aaccff"
       fill-rule="evenodd"
       stroke="#000000"
       stroke-width="0.51207"
       id="path10" />
    <path
       d="m 10.917,100.04 1.0345,0.25863 c 0,0 4.4122,-7.7273 5.0434,-9.4401 0.39438,-1.0703 0.12932,-1.9398 0.12932,-1.9398 l -6.2072,11.121 z"
       fill="#aaccff"
       fill-rule="evenodd"
       stroke="#000000"
       stroke-width="0.51207"
       id="path12" />
    <path
       d="m 32.254,96.416 c 0.35562,1.0669 -3.7502,9.2461 -4.6554,9.8281 -0.81584,0.52447 -9.1723,-0.80951 -9.8281,-1.8104 -0.61426,-0.93754 4.0212,-9.2492 4.7847,-9.6987 0.70087,-0.41271 9.3539,0.64648 9.6987,1.6811 z"
       fill="none"
       stroke="#ff0000"
       stroke-width="1.0241"
       id="path14" />
    <path
       d="m 8.0722,105.21 c 0,0 35.298,4.9512 44.744,6.3365 9.6987,1.4225 14.208,5.5296 15.647,10.216 1.4754,4.8047 2.457,24.441 -3.3622,32.2"
       fill="none"
       stroke="#000000"
       stroke-width="0.51207"
       id="path16" />
    <path
       d="m 311.9,42.298 c 2.5025,1.3903 6.4844,5.8491 6.5305,12.414 l 0.12932,18.428 c 0.0232,3.3132 -0.26685,5.8896 -1.2474,7.9641"
       fill="none"
       stroke="#000000"
       stroke-width="0.51207"
       id="path18" />
    <path
       d="m 328.46,56.849 c -0.5328,0 -0.9584,1.488 -0.9584,3.338 v 1.6597 c 0,1.85 0.4256,3.338 0.9584,3.338 0.5328,0 0.96307,-1.488 0.96307,-3.338 V 60.187 c 0,-1.85 -0.43026,-3.338 -0.96307,-3.338 z"
       fill-rule="evenodd"
       id="path20" />
    <path
       d="m 327.01,74.929 -6.6729,2.0643 0.19202,2.8324 6.4488,-2.2883 0.032,-2.6083 z m -11.602,3.5205 -7.777,2.2403 0.17602,3.8885 7.777,-2.8324 z m -84.363,24.915 c -22.403,6.5021 -45.359,11.912 -68.489,17.202 -2.557,0.86915 -14.594,15.497 -17.282,20.291 30.907,-9.6013 85.323,-28.708 85.323,-28.708 l 0.44806,-8.7852 z"
       fill-rule="evenodd"
       id="path22" />
    <path
       d="m 69.239,136.76 c 41.123,-3.3622 124.14,-22.242 167.08,-34.915 42.94,-12.673 105.26,-31.295 105.26,-31.295"
       fill="none"
       stroke="#000000"
       stroke-width="0.51207"
       id="path24" />
  </g>

</svg>